<svg width="83" height="83" viewBox="0 0 83 83" fill="none" xmlns="http://www.w3.org/2000/svg">
<path d="M66.5 69.625V63.375C66.5 60.0598 65.183 56.8804 62.8388 54.5362C60.4946 52.192 57.3152 50.875 54 50.875H29C25.6848 50.875 22.5054 52.192 20.1612 54.5362C17.817 56.8804 16.5 60.0598 16.5 63.375V69.625" stroke="white" stroke-width="4" stroke-linecap="round" stroke-linejoin="round"/>
<path d="M41.5 38.375C48.4036 38.375 54 32.7786 54 25.875C54 18.9714 48.4036 13.375 41.5 13.375C34.5964 13.375 29 18.9714 29 25.875C29 32.7786 34.5964 38.375 41.5 38.375Z" stroke="white" stroke-width="4" stroke-linecap="round" stroke-linejoin="round"/>
<rect x="2" y="2" width="79" height="79" rx="39.5" stroke="white" stroke-width="4"/>
</svg>
